<?xml version="1.0" encoding="iso-8859-1"?>
<!-- Generator: Adobe Illustrator 16.0.0, SVG Export Plug-In . SVG Version: 6.00 Build 0)  -->
<!DOCTYPE svg PUBLIC "-//W3C//DTD SVG 1.1//EN" "http://www.w3.org/Graphics/SVG/1.1/DTD/svg11.dtd">
<svg version="1.1" id="Capa_1" xmlns="http://www.w3.org/2000/svg" xmlns:xlink="http://www.w3.org/1999/xlink" x="0px" y="0px"
	 width="792px" height="792px" viewBox="0 0 792 792" style="enable-background:new 0 0 792 792;" xml:space="preserve">
<g>
	<g>
		<path d="M604.218,170.055v9.849l-77.044,34.155v-27.032c18.756-19.871,30.265-46.654,30.265-76.077
			C557.438,49.764,507.675,0,446.514,0c-33.374,0-63.342,14.816-83.696,38.206C342.451,14.816,312.484,0,279.11,0
			c-61.174,0-110.938,49.764-110.938,110.938c0,26.474,9.329,50.792,24.863,69.883h-24.863v31.306h36.955v149.515h322.047v-70.874
			l77.043,34.155v9.849h19.611V170.055H604.218z M279.11,161.284c-27.763,0-50.359-22.584-50.359-50.359
			s22.596-50.346,50.359-50.346c27.762,0,50.346,22.584,50.346,50.358C329.456,138.712,306.872,161.284,279.11,161.284z
			 M446.514,161.284c-27.763,0-50.359-22.584-50.359-50.359s22.584-50.359,50.359-50.359c27.762,0,50.358,22.584,50.358,50.359
			S474.275,161.284,446.514,161.284z"/>
		<polygon points="524.895,763.445 508.864,666.332 508.864,666.332 464.576,382.627 261.047,382.627 224.031,619.752 
			200.32,763.445 180.325,763.445 180.325,792 231.588,792 231.588,763.445 230.931,763.445 296.317,423.83 342.216,423.83 
			348.807,729.625 346.614,729.625 346.614,750.759 379.009,750.759 379.009,729.625 376.816,729.625 383.407,423.83 
			429.306,423.83 494.283,763.445 494.035,763.445 494.035,792 545.298,792 545.298,763.445 		"/>
	</g>
</g>
<g>
</g>
<g>
</g>
<g>
</g>
<g>
</g>
<g>
</g>
<g>
</g>
<g>
</g>
<g>
</g>
<g>
</g>
<g>
</g>
<g>
</g>
<g>
</g>
<g>
</g>
<g>
</g>
<g>
</g>
</svg>
